<svg xmlns="http://www.w3.org/2000/svg" viewBox="0 0 240 240" fill="none"><style>.l{fill:none;stroke:#0B2B6B;stroke-width:3;stroke-linecap:round;stroke-linejoin:round}.t{fill:none;stroke:#0B2B6B;stroke-width:1.5;stroke-linecap:round;stroke-linejoin:round}.a{fill:#EAF1FB;stroke:#0B2B6B;stroke-width:3;stroke-linecap:round;stroke-linejoin:round}.b{fill:#C7D8F2;stroke:#0B2B6B;stroke-width:3;stroke-linecap:round;stroke-linejoin:round}.m{fill:#DADDE2;stroke:#0B2B6B;stroke-width:3;stroke-linecap:round;stroke-linejoin:round}.d{fill:#0B1E3F;stroke:#0B2B6B;stroke-width:3;stroke-linecap:round;stroke-linejoin:round}.c{fill:#0054C6;stroke:#0B2B6B;stroke-width:3;stroke-linecap:round;stroke-linejoin:round}.w{fill:#FFFFFF;stroke:#0B2B6B;stroke-width:3;stroke-linecap:round;stroke-linejoin:round}.h{fill:#0B2B6B}.s{fill:#001026;opacity:.08}</style>
<ellipse class="s" cx="120" cy="216" rx="76" ry="7"/>
<path class="a" d="M46 110L194 110L212 95L64 95Z"/><path class="m" d="M46 110L64 95L64 131L46 146Z"/><path class="a" d="M46 110L194 110L194 146L181.7 159L169.3 146L157 159L144.7 146L132.3 159L120 146L107.7 159L95.3 146L83 159L70.7 146L58.3 159L46 146Z"/><path class="b" d="M58.3 110L58.3 159L70.7 146L70.7 110Z"/><path class="b" d="M83 110L83 159L95.3 146L95.3 110Z"/><path class="b" d="M107.7 110L107.7 159L120 146L120 110Z"/><path class="b" d="M132.3 110L132.3 159L144.7 146L144.7 110Z"/><path class="b" d="M157 110L157 159L169.3 146L169.3 110Z"/><path class="b" d="M181.7 110L181.7 159L194 146L194 110Z"/><path class="t" d="M58.3 110L76.3 95"/><path class="t" d="M58.3 110L58.3 159"/><path class="t" d="M70.7 110L88.7 95"/><path class="t" d="M70.7 110L70.7 146"/><path class="t" d="M83 110L101 95"/><path class="t" d="M83 110L83 159"/><path class="t" d="M95.3 110L113.3 95"/><path class="t" d="M95.3 110L95.3 146"/><path class="t" d="M107.7 110L125.7 95"/><path class="t" d="M107.7 110L107.7 159"/><path class="t" d="M120 110L138 95"/><path class="t" d="M120 110L120 146"/><path class="t" d="M132.3 110L150.3 95"/><path class="t" d="M132.3 110L132.3 159"/><path class="t" d="M144.7 110L162.7 95"/><path class="t" d="M144.7 110L144.7 146"/><path class="t" d="M157 110L175 95"/><path class="t" d="M157 110L157 159"/><path class="t" d="M169.3 110L187.3 95"/><path class="t" d="M169.3 110L169.3 146"/><path class="t" d="M181.7 110L199.7 95"/><path class="t" d="M181.7 110L181.7 159"/><path class="l" d="M46 146L58.3 159L70.7 146L83 159L95.3 146L107.7 159L120 146L132.3 159L144.7 146L157 159L169.3 146L181.7 159L194 146"/><path class="d" d="M46 110L194 110"/><path class="c" d="M82 70L98 102"/><path class="c" d="M90.6 96.9L98 102L98.3 93"/><path class="c" d="M150 70L166 102"/><path class="c" d="M158.6 96.9L166 102L166.3 93"/>
</svg>
