<svg xmlns="http://www.w3.org/2000/svg" viewBox="0 0 240 240" fill="none"><style>.l{fill:none;stroke:#0B2B6B;stroke-width:3;stroke-linecap:round;stroke-linejoin:round}.t{fill:none;stroke:#0B2B6B;stroke-width:1.5;stroke-linecap:round;stroke-linejoin:round}.a{fill:#EAF1FB;stroke:#0B2B6B;stroke-width:3;stroke-linecap:round;stroke-linejoin:round}.b{fill:#C7D8F2;stroke:#0B2B6B;stroke-width:3;stroke-linecap:round;stroke-linejoin:round}.m{fill:#DADDE2;stroke:#0B2B6B;stroke-width:3;stroke-linecap:round;stroke-linejoin:round}.d{fill:#0B1E3F;stroke:#0B2B6B;stroke-width:3;stroke-linecap:round;stroke-linejoin:round}.c{fill:#0054C6;stroke:#0B2B6B;stroke-width:3;stroke-linecap:round;stroke-linejoin:round}.w{fill:#FFFFFF;stroke:#0B2B6B;stroke-width:3;stroke-linecap:round;stroke-linejoin:round}.h{fill:#0B2B6B}.s{fill:#001026;opacity:.08}</style>
<ellipse class="s" cx="120" cy="216" rx="66" ry="7"/>
<path class="b" d="M64 170L64 92A56 50 0 0 1 176 92L176 170A56 23 0 0 1 64 170Z"/><path class="t" d="M72 98L72 112"/><path class="t" d="M84 98L84 112"/><path class="t" d="M96 98L96 112"/><path class="t" d="M108 98L108 112"/><path class="t" d="M120 98L120 112"/><path class="t" d="M132 98L132 112"/><path class="t" d="M144 98L144 112"/><path class="t" d="M156 98L156 112"/><path class="t" d="M168 98L168 112"/><path class="c" d="M64 124L64 146A56 23 0 0 0 176 146L176 124A56 23 0 0 1 64 124Z"/><ellipse class="a" cx="120" cy="170" rx="56" ry="23"/><ellipse class="t" cx="120" cy="170" rx="48" ry="20"/><circle class="h" cx="158" cy="170" r="3.6"/><circle class="h" cx="150.7" cy="178.2" r="3.6"/><circle class="h" cx="131.7" cy="183.3" r="3.6"/><circle class="h" cx="108.3" cy="183.3" r="3.6"/><circle class="h" cx="89.3" cy="178.2" r="3.6"/><circle class="h" cx="82" cy="170" r="3.6"/><circle class="h" cx="89.3" cy="161.8" r="3.6"/><circle class="h" cx="108.3" cy="156.7" r="3.6"/><circle class="h" cx="131.7" cy="156.7" r="3.6"/><circle class="h" cx="150.7" cy="161.8" r="3.6"/><ellipse class="b" cx="120" cy="170" rx="13" ry="6.5"/><ellipse class="t" cx="120" cy="170" rx="8" ry="4"/>
</svg>
