<svg xmlns="http://www.w3.org/2000/svg" viewBox="0 0 240 240" fill="none"><style>.l{fill:none;stroke:#0B2B6B;stroke-width:3;stroke-linecap:round;stroke-linejoin:round}.t{fill:none;stroke:#0B2B6B;stroke-width:1.5;stroke-linecap:round;stroke-linejoin:round}.a{fill:#EAF1FB;stroke:#0B2B6B;stroke-width:3;stroke-linecap:round;stroke-linejoin:round}.b{fill:#C7D8F2;stroke:#0B2B6B;stroke-width:3;stroke-linecap:round;stroke-linejoin:round}.m{fill:#DADDE2;stroke:#0B2B6B;stroke-width:3;stroke-linecap:round;stroke-linejoin:round}.d{fill:#0B1E3F;stroke:#0B2B6B;stroke-width:3;stroke-linecap:round;stroke-linejoin:round}.c{fill:#0054C6;stroke:#0B2B6B;stroke-width:3;stroke-linecap:round;stroke-linejoin:round}.w{fill:#FFFFFF;stroke:#0B2B6B;stroke-width:3;stroke-linecap:round;stroke-linejoin:round}.h{fill:#0B2B6B}.s{fill:#001026;opacity:.08}</style>
<ellipse class="s" cx="120" cy="216" rx="80" ry="7"/>
<rect class="m" x="178" y="40" width="18" height="16" rx="3"/>
<rect class="m" x="44" y="174" width="18" height="16" rx="3"/>
<rect class="m" x="60" y="42" width="20" height="12" rx="2"/>
<rect class="b" x="34" y="52" width="172" height="24" rx="8"/>
<rect class="b" x="34" y="152" width="172" height="24" rx="8"/>
<rect class="a" x="44" y="76" width="152" height="76"/>
<rect class="m" x="40" y="76" width="10" height="76"/>
<rect class="m" x="190" y="76" width="10" height="76"/>
<line class="t" x1="56" y1="80" x2="56" y2="148"/><line class="t" x1="62.1" y1="80" x2="62.1" y2="148"/><line class="t" x1="68.2" y1="80" x2="68.2" y2="148"/><line class="t" x1="74.3" y1="80" x2="74.3" y2="148"/><line class="t" x1="80.4" y1="80" x2="80.4" y2="148"/><line class="t" x1="86.5" y1="80" x2="86.5" y2="148"/><line class="t" x1="92.6" y1="80" x2="92.6" y2="148"/><line class="t" x1="98.7" y1="80" x2="98.7" y2="148"/><line class="t" x1="104.8" y1="80" x2="104.8" y2="148"/><line class="t" x1="110.9" y1="80" x2="110.9" y2="148"/><line class="t" x1="117" y1="80" x2="117" y2="148"/><line class="t" x1="123" y1="80" x2="123" y2="148"/><line class="t" x1="129.1" y1="80" x2="129.1" y2="148"/><line class="t" x1="135.2" y1="80" x2="135.2" y2="148"/><line class="t" x1="141.3" y1="80" x2="141.3" y2="148"/><line class="t" x1="147.4" y1="80" x2="147.4" y2="148"/><line class="t" x1="153.5" y1="80" x2="153.5" y2="148"/><line class="t" x1="159.6" y1="80" x2="159.6" y2="148"/><line class="t" x1="165.7" y1="80" x2="165.7" y2="148"/><line class="t" x1="171.8" y1="80" x2="171.8" y2="148"/><line class="t" x1="177.9" y1="80" x2="177.9" y2="148"/><line class="t" x1="184" y1="80" x2="184" y2="148"/>
<circle class="c" cx="70" cy="40" r="10"/>
<line class="t" x1="64" y1="40" x2="76" y2="40"/>
<rect class="h" x="97" y="176" width="6" height="12" rx="2"/>
<rect class="h" x="137" y="176" width="6" height="12" rx="2"/>
</svg>
