<svg xmlns="http://www.w3.org/2000/svg" viewBox="0 0 240 240" fill="none"><style>.l{fill:none;stroke:#0B2B6B;stroke-width:3;stroke-linecap:round;stroke-linejoin:round}.t{fill:none;stroke:#0B2B6B;stroke-width:1.5;stroke-linecap:round;stroke-linejoin:round}.a{fill:#EAF1FB;stroke:#0B2B6B;stroke-width:3;stroke-linecap:round;stroke-linejoin:round}.b{fill:#C7D8F2;stroke:#0B2B6B;stroke-width:3;stroke-linecap:round;stroke-linejoin:round}.m{fill:#DADDE2;stroke:#0B2B6B;stroke-width:3;stroke-linecap:round;stroke-linejoin:round}.d{fill:#0B1E3F;stroke:#0B2B6B;stroke-width:3;stroke-linecap:round;stroke-linejoin:round}.c{fill:#0054C6;stroke:#0B2B6B;stroke-width:3;stroke-linecap:round;stroke-linejoin:round}.w{fill:#FFFFFF;stroke:#0B2B6B;stroke-width:3;stroke-linecap:round;stroke-linejoin:round}.h{fill:#0B2B6B}.s{fill:#001026;opacity:.08}</style>
<ellipse class="s" cx="120" cy="216" rx="80" ry="7"/><g transform="translate(104 98) rotate(-26)"><path class="m" d="M -84 0 C -84 -6 -79 -8 -72 -8 Q 0 -15 72 -8 C 79 -8 84 -6 84 0 C 84 6 79 8 72 8 Q 0 1 -72 8 C -79 8 -84 6 -84 0 Z"/><path class="l" d="M -70 9 Q 0 3 70 9"/><path class="t" d="M -72 -3 Q 0 -9 72 -3"/><rect class="d" x="-13" y="-20" width="26" height="15" rx="3"/><rect class="c" x="-5" y="-18" width="10" height="8" rx="2"/></g><g transform="translate(132 130) rotate(-26)"><path class="m" d="M -84 0 C -84 -6 -79 -8 -72 -8 Q 0 -15 72 -8 C 79 -8 84 -6 84 0 C 84 6 79 8 72 8 Q 0 1 -72 8 C -79 8 -84 6 -84 0 Z"/><path class="l" d="M -70 9 Q 0 3 70 9"/><path class="t" d="M -72 -3 Q 0 -9 72 -3"/><rect class="d" x="-13" y="-20" width="26" height="15" rx="3"/><rect class="c" x="-5" y="-18" width="10" height="8" rx="2"/></g>
</svg>
