<svg xmlns="http://www.w3.org/2000/svg" viewBox="0 0 240 240" fill="none"><style>.l{fill:none;stroke:#0B2B6B;stroke-width:3;stroke-linecap:round;stroke-linejoin:round}.t{fill:none;stroke:#0B2B6B;stroke-width:1.5;stroke-linecap:round;stroke-linejoin:round}.a{fill:#EAF1FB;stroke:#0B2B6B;stroke-width:3;stroke-linecap:round;stroke-linejoin:round}.b{fill:#C7D8F2;stroke:#0B2B6B;stroke-width:3;stroke-linecap:round;stroke-linejoin:round}.m{fill:#DADDE2;stroke:#0B2B6B;stroke-width:3;stroke-linecap:round;stroke-linejoin:round}.d{fill:#0B1E3F;stroke:#0B2B6B;stroke-width:3;stroke-linecap:round;stroke-linejoin:round}.c{fill:#0054C6;stroke:#0B2B6B;stroke-width:3;stroke-linecap:round;stroke-linejoin:round}.w{fill:#FFFFFF;stroke:#0B2B6B;stroke-width:3;stroke-linecap:round;stroke-linejoin:round}.h{fill:#0B2B6B}.s{fill:#001026;opacity:.08}</style>
<ellipse class="s" cx="120" cy="216" rx="66" ry="7"/><rect class="m" x="148" y="100" width="52" height="28" rx="10"/><line class="t" x1="156" y1="102" x2="156" y2="126"/><line class="t" x1="160" y1="102" x2="160" y2="126"/><line class="t" x1="164" y1="102" x2="164" y2="126"/><line class="t" x1="168" y1="102" x2="168" y2="126"/><line class="t" x1="172" y1="102" x2="172" y2="126"/><line class="t" x1="176" y1="102" x2="176" y2="126"/><line class="t" x1="180" y1="102" x2="180" y2="126"/><line class="t" x1="188" y1="100" x2="188" y2="128"/><path class="m" d="M72,52 C118,42 150,74 150,96 L150,132 C150,156 118,186 72,176 Z"/><ellipse class="b" cx="72" cy="114" rx="28" ry="60"/><ellipse class="a" cx="74" cy="114" rx="19" ry="44"/><circle class="w" cx="74" cy="78" r="8"/><circle class="w" cx="89.6" cy="96" r="8"/><circle class="w" cx="89.6" cy="132" r="8"/><circle class="w" cx="74" cy="150" r="8"/><circle class="w" cx="58.4" cy="132" r="8"/><circle class="w" cx="58.4" cy="96" r="8"/><ellipse class="b" cx="74" cy="114" rx="9" ry="17"/><circle class="h" cx="74" cy="114" r="3.5"/>
</svg>
