<svg xmlns="http://www.w3.org/2000/svg" viewBox="0 0 240 240" fill="none"><style>.l{fill:none;stroke:#0B2B6B;stroke-width:3;stroke-linecap:round;stroke-linejoin:round}.t{fill:none;stroke:#0B2B6B;stroke-width:1.5;stroke-linecap:round;stroke-linejoin:round}.a{fill:#EAF1FB;stroke:#0B2B6B;stroke-width:3;stroke-linecap:round;stroke-linejoin:round}.b{fill:#C7D8F2;stroke:#0B2B6B;stroke-width:3;stroke-linecap:round;stroke-linejoin:round}.m{fill:#DADDE2;stroke:#0B2B6B;stroke-width:3;stroke-linecap:round;stroke-linejoin:round}.d{fill:#0B1E3F;stroke:#0B2B6B;stroke-width:3;stroke-linecap:round;stroke-linejoin:round}.c{fill:#0054C6;stroke:#0B2B6B;stroke-width:3;stroke-linecap:round;stroke-linejoin:round}.w{fill:#FFFFFF;stroke:#0B2B6B;stroke-width:3;stroke-linecap:round;stroke-linejoin:round}.h{fill:#0B2B6B}.s{fill:#001026;opacity:.08}</style>
<ellipse class="s" cx="120" cy="216" rx="74" ry="7"/>
<circle class="m" cx="120" cy="196" r="13"/><circle class="h" cx="120" cy="196" r="5"/><circle class="m" cx="47.3" cy="70" r="13"/><circle class="h" cx="47.3" cy="70" r="5"/><circle class="m" cx="192.7" cy="70" r="13"/><circle class="h" cx="192.7" cy="70" r="5"/><circle class="m" cx="120" cy="112" r="76"/><circle class="t" cx="120" cy="112" r="68"/><circle class="a" cx="120" cy="112" r="62"/><path class="t" d="M140 112Q157.6 125.7 161.7 155.2"/><path class="t" d="M132.5 127.6Q132.7 149.9 112.2 171.5"/><path class="t" d="M115.5 131.5Q98.3 145.6 68.6 143"/><path class="t" d="M102 120.7Q80.2 116 63.7 91.2"/><path class="t" d="M102 103.3Q92.1 83.4 101.2 55"/><path class="t" d="M115.5 92.5Q125 72.3 152.8 61.8"/><path class="t" d="M132.5 96.4Q154.1 91.1 179.7 106.3"/><circle class="b" cx="120" cy="112" r="34"/><circle class="h" cx="137" cy="129" r="4.4"/><circle class="h" cx="103" cy="129" r="4.4"/><circle class="h" cx="103" cy="95" r="4.4"/><circle class="h" cx="137" cy="95" r="4.4"/><circle class="a" cx="120" cy="112" r="13"/><circle class="h" cx="120" cy="112" r="4"/>
</svg>
